<svg width="127" height="32" viewBox="0 0 127 32" fill="none" xmlns="http://www.w3.org/2000/svg">
<path d="M36.594 15.664C36.594 14.416 36.864 13.306 37.404 12.334C37.944 11.35 38.694 10.588 39.654 10.048C40.626 9.496 41.724 9.22 42.948 9.22C44.448 9.22 45.732 9.616 46.8 10.408C47.868 11.2 48.582 12.28 48.942 13.648H45.558C45.306 13.12 44.946 12.718 44.478 12.442C44.022 12.166 43.5 12.028 42.912 12.028C41.964 12.028 41.196 12.358 40.608 13.018C40.02 13.678 39.726 14.56 39.726 15.664C39.726 16.768 40.02 17.65 40.608 18.31C41.196 18.97 41.964 19.3 42.912 19.3C43.5 19.3 44.022 19.162 44.478 18.886C44.946 18.61 45.306 18.208 45.558 17.68H48.942C48.582 19.048 47.868 20.128 46.8 20.92C45.732 21.7 44.448 22.09 42.948 22.09C41.724 22.09 40.626 21.82 39.654 21.28C38.694 20.728 37.944 19.966 37.404 18.994C36.864 18.022 36.594 16.912 36.594 15.664ZM59.5929 19.768H54.8769L54.1209 22H50.8989L55.4709 9.364H59.0349L63.6069 22H60.3489L59.5929 19.768ZM58.8009 17.392L57.2349 12.766L55.6869 17.392H58.8009ZM74.9884 9.364V11.83H71.6404V22H68.5624V11.83H65.2144V9.364H74.9884ZM85.2992 19.768H80.5832L79.8272 22H76.6052L81.1772 9.364H84.7412L89.3132 22H86.0552L85.2992 19.768ZM84.5072 17.392L82.9412 12.766L81.3932 17.392H84.5072ZM94.6827 19.624H98.7147V22H91.6047V9.364H94.6827V19.624ZM104.107 9.364V16.924C104.107 17.68 104.293 18.262 104.665 18.67C105.037 19.078 105.583 19.282 106.303 19.282C107.023 19.282 107.575 19.078 107.959 18.67C108.343 18.262 108.535 17.68 108.535 16.924V9.364H111.613V16.906C111.613 18.034 111.373 18.988 110.893 19.768C110.413 20.548 109.765 21.136 108.949 21.532C108.145 21.928 107.245 22.126 106.249 22.126C105.253 22.126 104.359 21.934 103.567 21.55C102.787 21.154 102.169 20.566 101.713 19.786C101.257 18.994 101.029 18.034 101.029 16.906V9.364H104.107ZM126.536 9.364L122.054 22H118.202L113.72 9.364H116.996L120.128 18.904L123.278 9.364H126.536Z" fill="black"/>
<g clip-path="url(#clip0)">
<path d="M24.7875 1.22336C24.5181 1.22336 24.2453 1.23551 23.977 1.25974C21.2057 1.51045 18.6788 3.19337 16.8381 6.00766C14.7027 2.85808 11.173 0.835663 7.77779 0.835663C7.03166 0.835663 6.29239 0.932135 5.58084 1.12262C3.38195 1.71121 1.58911 3.34819 0.662519 5.61454C-0.36436 8.12532 -0.187635 11.0664 1.12388 13.2899C2.92505 16.3438 6.01319 18.2079 8.99922 20.0102C10.533 20.9365 12.1193 21.8933 13.4797 22.9902C13.8849 23.3164 14.394 23.7416 14.8307 24.2049C14.2797 24.7479 13.1901 26.5529 13.1796 26.5746C12.8372 27.2948 12.3669 28.8176 12.7757 29.9568C12.9504 30.4428 13.2643 30.7949 13.7095 31.0032C13.9379 31.1098 14.1782 31.1643 14.4235 31.1643C15.4781 31.1643 16.4549 30.1648 17.0892 29.3268C18.249 27.7925 18.4226 26.1821 17.6047 24.5379C19.008 23.2685 20.5347 22.0885 22.0119 20.9466C24.5532 18.9826 27.1808 16.9512 29.2716 14.3981C30.2931 13.1504 33.4512 8.76276 31.219 4.67508C30.0389 2.51368 27.6345 1.22336 24.7875 1.22336ZM15.6531 27.6206C15.4408 28.0262 15.2265 28.3189 15.0034 28.5059C15.0483 27.9035 15.2779 27.3154 15.4254 26.9919C15.4667 26.9011 15.7379 26.4817 15.9329 26.2012C15.9942 26.6783 15.9018 27.1455 15.6531 27.6206ZM13.1138 5.03525C13.7679 5.57422 14.3462 6.18303 14.8326 6.84353C14.8905 6.9223 14.9794 7.07079 15.083 7.24267C15.68 8.23724 16.3215 9.20829 17.0159 9.20829C17.3605 9.20829 17.6522 8.96611 17.8828 8.48788C19.3558 5.43768 21.7061 3.61913 24.5007 3.3668C24.6631 3.35188 24.8278 3.34496 24.9905 3.34496C27.1286 3.34496 29.0088 4.59645 29.6695 6.45881C30.54 8.91396 29.1622 11.8234 25.4575 15.353C23.8667 16.8688 22.1024 18.2319 20.3965 19.5503C19.0575 20.5845 17.6741 21.6535 16.3789 22.7921C15.2141 21.501 13.6862 20.4194 12.4736 19.6146C11.7543 19.1368 10.9767 18.6696 10.1537 18.1748C6.10701 15.7428 1.52101 12.9863 2.244 7.85368C2.65728 4.91901 4.84157 3.02279 7.80874 3.02279C8.02675 3.02279 8.24987 3.03313 8.47235 3.05458C10.104 3.20979 11.7522 3.91339 13.1138 5.03525Z" fill="url(#paint0_linear)"/>
</g>
<defs>
<linearGradient id="paint0_linear" x1="16" y1="0.835663" x2="16" y2="31.1643" gradientUnits="userSpaceOnUse">
<stop stop-color="#FF005C"/>
<stop offset="1" stop-color="#E9CB60" stop-opacity="0.94"/>
</linearGradient>
<clipPath id="clip0">
<rect width="32" height="32" fill="white"/>
</clipPath>
</defs>
</svg>
